<svg xmlns:xlink="http://www.w3.org/1999/xlink" viewBox="0 0 40 40" xmlns="http://www.w3.org/2000/svg" width="40"  height="40" >
  <g fill="none">
    <circle fill="#F7931A" cx="20" cy="20" r="20"/>
    <circle stroke-opacity=".02" stroke="#000" cx="20" cy="20" r="19.5"/>
    <path d="M28.9862 17.525c.3925-2.62-1.6037-4.0287-4.3312-4.9687l.885-3.55-2.16-.5375-.8625 3.4562c-.5675-.1425-1.15-.275-1.7312-.4075l.8687-3.4787-2.16-.5388-.885 3.5488c-.47-.1075-.9325-.2126-1.38-.325l.0025-.0113-2.98-.7438-.575 2.3075s1.6037.3676 1.57.39c.875.2188 1.0325.7975 1.0062 1.2576l-1.0074 4.0437c.06.015.1374.0375.225.0712l-.2288-.0562-1.4125 5.665c-.1075.265-.3788.6638-.9913.5125.0226.0313-1.57-.3912-1.57-.3912l-1.0725 2.4725 2.8125.7012c.5226.1313 1.035.2688 1.5388.3975l-.8937 3.59 2.1587.5375.885-3.55a99.293 99.293 0 001.7225.4462l-.8825 3.535 2.16.5375.8937-3.5824c3.685.6974 6.455.4162 7.6213-2.9163.94-2.6825-.0462-4.2312-1.985-5.24 1.4125-.325 2.475-1.2538 2.7587-3.1725zm-4.9375 6.9225c-.6662 2.6837-5.185 1.2325-6.65.8687l1.1875-4.7562c1.465.3663 6.1613 1.09 5.4625 3.8875zm.6688-6.9613c-.6088 2.4413-4.3688 1.2-5.5875.8963l1.075-4.3125c1.2188.3037 5.1475.87 4.5125 3.4162z" fill="#FFF"/>
  </g>
</svg>