<svg width="80" height="80" viewBox="0 0 80 80" fill="none" xmlns="http://www.w3.org/2000/svg">
<path d="M40 80C62.0914 80 80 62.0914 80 40C80 17.9086 62.0914 0 40 0C17.9086 0 0 17.9086 0 40C0 62.0914 17.9086 80 40 80Z" fill="#49CC68"/>
<path fill-rule="evenodd" clip-rule="evenodd" d="M44.0608 49H38.6818L51.1213 36.5605L49.0003 34.4395L32.2078 51.232C31.9243 51.517 32.1253 52 32.5273 52H44.0608V49ZM30.121 45.5605L28 43.4395L40.4395 31H35.0605V28H46.594C46.996 28 47.197 28.4845 46.9135 28.7695L30.121 45.5605Z" fill="white"/>
</svg>
