<svg viewBox="0 0 40 40" xmlns="http://www.w3.org/2000/svg">
  <g fill="none">
    <path d="M20 40C8.954 40 0 31.046 0 20S8.954 0 20 0s20 8.954 20 20-8.954 20-20 20z" fill="#C2A633"/>
    <circle stroke-opacity=".02" stroke="#000" cx="20" cy="20" r="19.5"/>
    <path d="M20.0922 26.5528h-2.9857v-5.611h4.478v-2.3495h-4.478v-5.6115h2.8463c1.0645 0 6.4204.4285 6.429 7.0436.0085 6.615-5.5224 6.5284-6.2896 6.5284m-.8576-17.552H13.043v9.5917H10.5v2.3494h2.543v9.591h7.2146s10.1438.8503 10.1438-10.586c0-11.2502-9.702-10.946-11.1668-10.946" fill="#FFF"/>
    <circle stroke-opacity=".02" stroke="#000" cx="20" cy="20" r="19.5"/>
  </g>
</svg>
