<svg width="40" height="40" viewBox="0 0 40 40" fill="none" xmlns="http://www.w3.org/2000/svg">
<g id="DOT">
<path id="Path" d="M20.0048 0.0458984C8.96941 0.0458984 0.0307617 8.98455 0.0307617 20.0199C0.0307617 31.0552 8.96941 39.9939 20.0048 39.9939C31.0316 39.9939 39.9788 31.0552 39.9788 20.0199C39.9788 8.98455 31.0316 0.0458984 20.0048 0.0458984Z" fill="#E6007A"/>
<path id="Vector" d="M19.9991 11.8728C22.7527 11.8728 24.985 10.5581 24.985 8.9364C24.985 7.31467 22.7527 6 19.9991 6C17.2454 6 15.0132 7.31467 15.0132 8.9364C15.0132 10.5581 17.2454 11.8728 19.9991 11.8728Z" fill="white"/>
<path id="Vector_2" d="M19.9991 33.998C22.7527 33.998 24.985 32.6834 24.985 31.0616C24.985 29.4399 22.7527 28.1252 19.9991 28.1252C17.2454 28.1252 15.0132 29.4399 15.0132 31.0616C15.0132 32.6834 17.2454 33.998 19.9991 33.998Z" fill="white"/>
<path id="Vector_3" d="M13.0507 15.9374C14.4276 13.5227 14.4186 10.9073 13.0308 10.0959C11.6429 9.2845 9.40175 10.5843 8.02493 12.999C6.64811 15.4138 6.65705 18.0291 8.04489 18.8405C9.43273 19.6519 11.6739 18.3522 13.0507 15.9374Z" fill="white"/>
<path id="Vector_4" d="M31.9709 26.9988C33.3478 24.584 33.3396 21.9691 31.9527 21.1583C30.5658 20.3474 28.3253 21.6476 26.9485 24.0624C25.5717 26.4771 25.5799 29.092 26.9668 29.9029C28.3537 30.7138 30.5941 29.4135 31.9709 26.9988Z" fill="white"/>
<path id="Vector_5" d="M13.0315 29.9021C14.4194 29.0907 14.4283 26.4754 13.0515 24.0606C11.6747 21.6459 9.43346 20.3461 8.04562 21.1575C6.65778 21.9689 6.64885 24.5843 8.02566 26.999C9.40248 29.4138 11.6437 30.7135 13.0315 29.9021Z" fill="white"/>
<path id="Vector_6" d="M31.9539 18.8412C33.3408 18.0304 33.349 15.4155 31.9721 13.0007C30.5953 10.586 28.3549 9.28576 26.968 10.0966C25.5811 10.9075 25.5729 13.5224 26.9497 15.9371C28.3265 18.3519 30.567 19.6521 31.9539 18.8412Z" fill="white"/>
<circle id="Border" cx="20" cy="20" r="19.5" stroke="black" stroke-opacity="0.02"/>
</g>
</svg>
