<svg xmlns:xlink="http://www.w3.org/1999/xlink" xmlns="http://www.w3.org/2000/svg" class="sc-28cf4d9-0 fxDIaW" role="img" viewbox="0 0 24 24" width="24" height="24">
    <path d="M15.726 22.467a.932.932 0 0 1-.612 1.145 9.006 9.006 0 0 1-2.552.388h-.102a8.998 8.998 0 0 1-2.603-.396.932.932 0 0 1-.612-1.154.86.86 0 0 1 .417-.57.841.841 0 0 1 .697-.059c.682.209 1.39.316 2.101.319h.102a7.274 7.274 0 0 0 2.084-.319.841.841 0 0 1 .68.082.86.86 0 0 1 .4.564zm4.84-16.544a11.655 11.655 0 0 1-.723 7.992c-1.65 3.798-4.652 6.442-7.332 6.442h-.034c-2.68 0-5.682-2.644-7.332-6.442a11.663 11.663 0 0 1-.765-7.992C5.527 2.389 8.786 0 12.46 0c3.675 0 6.933 2.389 8.08 5.923h.026zM9.271 2.573a6.768 6.768 0 0 1 3.206 1.524 6.768 6.768 0 0 1 3.207-1.524 6.664 6.664 0 0 0-6.405 0h-.008zm-.239 6.252A13.505 13.505 0 0 1 11.16 5.38c-1.276-.964-2.552-1.266-3.564-.8a3.11 3.11 0 0 0-1.497 1.877 9.703 9.703 0 0 0 .655 6.657c.334.778.744 1.519 1.225 2.214a12.74 12.74 0 0 1 1.054-6.511v.008zm5.265.758a11.64 11.64 0 0 0-1.82-2.945 11.632 11.632 0 0 0-1.812 2.937c-1.59 3.668-1.19 7.75.851 8.672a2.27 2.27 0 0 0 1.94 0c2.024-.947 2.424-5.004.833-8.664h.008zm4.577-3.109a3.11 3.11 0 0 0-1.497-1.877c-.996-.465-2.288-.164-3.564.8a13.505 13.505 0 0 1 2.126 3.446 12.74 12.74 0 0 1 1.055 6.519c.48-.695.89-1.436 1.225-2.213a9.703 9.703 0 0 0 .646-6.683l.009.008z" fill="#5fd27b"></path>
</svg>
