<svg viewBox="0 0 40 40" xmlns="http://www.w3.org/2000/svg" xmlns:xlink="http://www.w3.org/1999/xlink">
  <defs>
    <linearGradient id="d" x1="5.693%" x2="94.298%" y1="86.144%" y2="13.856%">
      <stop offset="0%" stop-color="#CA4DE8"/>
      <stop offset="100%" stop-color="#10F4B1"/>
    </linearGradient>
  </defs>
  <g fill="none">
    <path fill="#2B2B2B" d="M20 40.001c-11 0-20-9-20-20.1.1-11 9-20 20.1-19.9 11 .1 19.9 9 19.9 20.2-.1 10.9-9 19.8-20 19.8"/>
    <circle cx="20" cy="20" r="19.5" stroke="#000" stroke-opacity=".02"/>
    <g transform="translate(9 11)">
      <path fill="url(#d)" d="M3.5978 0a.8215.8215 0 00-.5803.2428L.2409 3.0383c-.1653.1652-.2398.3679-.2409.567v.0083c.002.4194.3295.8205.8212.8205H18.372a.8217.8217 0 00.5804-.2427l2.7727-2.7955C22.241.88 21.873 0 21.1447 0H3.5978zM.8212 6.7441c-.4917 0-.8191.4012-.8212.8206v.0083c.001.1991.0756.4017.2409.567l2.7766 2.7955a.8088.8088 0 00.5803.2428h17.5507c.493 0 .8191-.4033.8195-.8238v-.0022c-.0003-.2-.0743-.4038-.2392-.5699L18.9523 6.987a.8088.8088 0 00-.5804-.2428H.8212zm2.7766 6.7442a.8215.8215 0 00-.5803.2427L.2409 16.5266c-.1653.1652-.2398.3678-.2409.567v.0083c.002.4194.3295.8205.8212.8205h17.5469a.8214.8214 0 00.5803-.2427l2.7766-2.7956c.5159-.5158.148-1.3958-.5803-1.3958H3.5978z"/>
    </g>
  </g>
</svg>
