<svg xmlns:xlink="http://www.w3.org/1999/xlink" xmlns="http://www.w3.org/2000/svg" class="sc-28cf4d9-0 sc-6b89817c-0 fxDIaW ftjbWQ" role="img" viewBox="0 0 32 32" width="40"  height="40" ><path d="M16 32C7.2 32 0 24.8 0 16S7.2 0 16 0s16 7.2 16 16-7.2 16-16 16zm0-30.3C8.1 1.7 1.7 8.1 1.7 16S8.1 30.3 16 30.3 30.3 23.9 30.3 16 23.9 1.7 16 1.7zm4.3 13.5 3 3c.3.3.3.7.1 1l-.1.1-3 3-1.1-1.1 1.7-1.7h-8V18h8l-1.7-1.7 1.1-1.1zm-8.6-6 1.1 1.1L11 12h8v1.5h-8l1.7 1.7-1.1 1.1-3-3c-.3-.3-.3-.7-.1-1l.1-.1 3.1-3z" fill="#49CC68"></path></svg>