<svg xmlns:xlink="http://www.w3.org/1999/xlink" xmlns="http://www.w3.org/2000/svg" class="sc-28cf4d9-0 sc-6b89817c-0 fxDIaW ftjbWQ" role="img" viewBox="0 0 32 32" width="40"  height="40" ><path d="M5.8 5.8C9.7 1.9 15.5.6 20.6 2.3l.2.1-.6 1.6C15.7 2.4 10.5 3.5 7 7c-4.7 4.7-4.9 12.2-.7 17.2l.8-5 1.9.3-1.1 6.8c-.1.5-.5.8-1 .8h-.1L0 26l.3-1.8 4.2.7C.1 19.2.5 11 5.8 5.8zm19.3-.9c-.5 0-.9.3-1 .8L23 12.5l1.8.3.8-5c4.3 5 4 12.5-.7 17.2-3.5 3.5-8.6 4.6-13.2 3l-.6 1.7.2.1c5.2 1.7 10.9.4 14.8-3.5 5.2-5.2 5.6-13.4 1.2-19.1l4.2.7L32 6l-6.9-1.1zm-13.4 5.4v11.3c0 .7.7 1.1 1.3.8l10.2-5.7c.6-.3.6-1.2 0-1.6L13 9.5c-.6-.3-1.3.1-1.3.8zm1.8 1.6 7.4 4.1-7.4 4.1v-8.2z" fill="#49CC68"></path></svg>