<svg xmlns:xlink="http://www.w3.org/1999/xlink" xmlns="http://www.w3.org/2000/svg" class="sc-28cf4d9-0 gmCrsr" role="img" viewBox="0 0 512 512" width="512"  height="512" ><path d="M352 0c87.468 0 158.565 70.222 159.979 157.355L512 160v192c0 87.468-70.222 158.565-157.355 159.979L352 512H160C72.532 512 1.435 441.778.021 354.645L0 352V160C0 72.532 70.222 1.435 157.355.021L160 0h192Zm0 48H160C98.858 48 49.006 97.24 48.015 158.15L48 160v192c0 61.142 49.24 110.994 110.15 111.985L160 464h192c61.142 0 110.994-49.24 111.985-110.15L464 352V160c0-61.76-50.24-112-112-112Zm-96 80c70.688 0 128 57.312 128 128s-57.312 128-128 128-128-57.312-128-128 57.312-128 128-128Zm0 48c-44.096 0-80 35.872-80 80 0 44.096 35.904 80 80 80s80-35.904 80-80c0-44.128-35.904-80-80-80Zm137.6-74.656c9.42 0 17.056 7.636 17.056 17.056 0 9.42-7.636 17.056-17.056 17.056-9.42 0-17.056-7.636-17.056-17.056 0-9.42 7.636-17.056 17.056-17.056Z" fill="#68778D"></path></svg>