<svg xmlns:xlink="http://www.w3.org/1999/xlink" xmlns="http://www.w3.org/2000/svg" class="sc-28cf4d9-0 fxDIaW" role="img" viewBox="0 0 24 24" width="24"  height="24" ><path d="M21.4 12.6c-1.2-2-3.3-.7-4.6 0-.5.3-1 .6-1.6.8v-.3c-.1-.3-.2-.6-.4-.8-.2-.2-.5-.4-.7-.5-.7-.3-1.4-.3-2.1-.2-.4.1-.8.2-1.1.4-.2.1-.5.2-.7.3-.1 0-.2 0-.3-.1l-.4-.1c-.2-.4-.2-.9-.2-1.3 0-.7.1-1.5.3-2.2.3-.7.7-1.3 1.2-1.9.5-.5 1.1-1 1.8-1.3.5-.2 1.2-.4 2-.4s1.5.1 2.2.4c.7.3 1.3.7 1.8 1.3.5.5.9 1.2 1.2 1.9.3.7.4 1.4.3 2.2 0 .2.1.4.2.6.1.1.3.2.6.2.2 0 .4-.1.6-.2.1-.1.2-.3.2-.6 0-.9-.1-1.9-.5-2.8-.3-.9-.9-1.7-1.5-2.4-.7-.7-1.5-1.2-2.3-1.6-.9-.4-1.8-.6-2.8-.6s-1.9.2-2.8.6c-.8.4-1.6.9-2.3 1.6C8.8 6.3 8.3 7.1 8 8s-.5 1.8-.5 2.8c0 .4 0 .8.2 1.3-1 .1-1.9.5-2.7 1.2-.3-.3-.4-.3-.5-.4-.3-.2-.5-.3-2.3 1.1-.2.1-.3.3-.3.5s0 .4.2.6c.1.2.3.3.5.3s.4 0 .6-.2c.3-.2.7-.5 1-.7.8.9 2.7 3.2 4.1 4.8l1.3 1.5c-.2.1-.3.3-.3.5s0 .4.2.6c0 .1.1.1.2.2s.2.1.3.1c.2 0 .3-.1.5-.2.8-.6.8-1 .8-1.2 0-.1 0-.3-.1-.4h.6c1.5 0 3.1-.4 4.4-1.2 0 0 4.9-2.8 5.4-5.2v-.7c0-.3-.1-.5-.2-.7zm-1.3 1.1c-.3 1.2-3.2 3.4-4.7 4.2-1.6 1-3.6 1.2-5.5.8h-.1l-.4-.4-3.4-4c.5-.4 1-.6 1.6-.8s1.2-.1 1.7.1c.3.1.6.1.9.1.4-.1.8-.2 1.1-.4.2-.1.5-.2.8-.3.4-.1.8-.1 1.2 0 .1 0 .1.1.2.1.1.1.1.1.1.2v.3c0 .1-.1.2-.1.2-.5.6-1.2 1-2 1.1-.2 0-.4.2-.5.3-.1.2-.2.3-.1.5 0 .2.1.4.2.5s.3.2.5.2h.2c1.1-.2 2.1-.8 2.9-1.6h.2c1-.1 1.9-.5 2.7-1 1.7-1 2.2-1.1 2.5-.6v.5z" fill="#FFFFFF"></path></svg>