<svg xmlns:xlink="http://www.w3.org/1999/xlink" xmlns="http://www.w3.org/2000/svg" class="sc-28cf4d9-0 sc-6b89817c-0 fxDIaW ftjbWQ" role="img" viewBox="0 0 32 32" width="40"  height="40" ><path d="M32 16c0-8.8-7.2-16-16-16S0 7.2 0 16s7.2 16 16 16 16-7.2 16-16zM1.8 16C1.8 8.1 8.1 1.8 16 1.8c7.9 0 14.2 6.4 14.2 14.2 0 7.9-6.4 14.2-14.2 14.2-7.9 0-14.2-6.3-14.2-14.2zm12.7-.6c.3.3.3.8.1 1.2l-.1.1-5.7 5.7L7.6 21l5-5-5-5 1.3-1.3 5.6 5.7zm2.9 1.2c-.3-.3-.3-.9.1-1.2l5.7-5.7 1.3 1.3-5 5 5 5-1.3 1.3-5.8-5.7z" fill="#49CC68"></path></svg>