<svg xmlns:xlink="http://www.w3.org/1999/xlink" xmlns="http://www.w3.org/2000/svg" class="sc-28cf4d9-0 gmCrsr" role="img" viewBox="0 0 512 512" width="512"  height="512" ><path d="M114.496 160v352H0V160h114.496Zm160 0v67.296C288.448 208.544 330.784 160 397.536 160c7.808 0 14.464.864 20.544 2.08 1.568.256 3.104.544 4.64.896 1.28.352 2.432.768 3.648 1.152 48.692 12.704 84.902 56.269 85.621 108.743l.011 1.593V512H397.536V288c-34.686-84.086-114.512 20.471-122.408 31.137l-.632.863v192H160V160h114.496ZM56 0c30.928 0 56 25.072 56 56s-25.072 56-56 56S0 86.928 0 56 25.072 0 56 0Z" fill="#68778D"></path></svg>