<svg xmlns:xlink="http://www.w3.org/1999/xlink" xmlns="http://www.w3.org/2000/svg" class="sc-28cf4d9-0 sc-6b89817c-0 fxDIaW ftjbWQ" role="img" viewBox="0 0 32 32" width="40"  height="40" ><path d="M16 0C7.2 0 0 7.2 0 16s7.2 16 16 16 16-7.2 16-16S24.8 0 16 0zm0 30.3C8.1 30.3 1.7 23.9 1.7 16S8.1 1.7 16 1.7 30.3 8.1 30.3 16 23.9 30.3 16 30.3zm-8.4-7.6h1.7v-5.1H7.6v5.1zm11-9.4L14 9.5c-.3-.2-.7-.3-1 0l-5.9 4.2 1 1.4 5.4-3.8L18 15c.2.1.3.2.5.2s.3-.1.5-.2l5.9-4.2-1-1.4-5.3 3.9zm-6 9.4h1.7v-8.4h-1.7v8.4zm10.1 0h1.7v-8.4h-1.7v8.4zm-5 0h1.7v-5.1h-1.7v5.1z" fill="#49CC68"></path></svg>