<svg width="80" height="80" viewBox="0 0 80 80" fill="none" xmlns="http://www.w3.org/2000/svg">
<path d="M40 80C62.0914 80 80 62.0914 80 40C80 17.9086 62.0914 0 40 0C17.9086 0 0 17.9086 0 40C0 62.0914 17.9086 80 40 80Z" fill="#49CC68"/>
<path fill-rule="evenodd" clip-rule="evenodd" d="M50.2837 28C51.2303 28 51.9978 28.7674 51.9978 29.7141V47.7125C51.9978 48.252 51.7438 48.7601 51.3121 49.0838L47.8839 51.655C47.3025 52.091 46.5093 52.113 45.9046 51.7099L41.713 48.9155L37.5215 51.7099C37.0096 52.0511 36.3542 52.0919 35.8041 51.8168L33.1424 50.486L30.4807 51.8168C29.341 52.3867 28 51.5579 28 50.2837V29.7141C28 28.7674 28.7674 28 29.7141 28H50.2837ZM48.5695 31.4283H31.4283V47.5101L32.3758 47.0364C32.8584 46.7951 33.4264 46.7951 33.909 47.0364L36.4475 48.3056L40.7622 45.4292C41.338 45.0453 42.0881 45.0453 42.6638 45.4292L46.7971 48.1847L48.5695 46.8554V31.4283ZM44.5354 32.5364L45.7476 33.7484L35.5074 43.9903L34.2952 42.7783L44.5354 32.5364ZM43.4271 39.9989C44.3736 39.9989 45.1413 40.7666 45.1413 41.713C45.1413 42.6595 44.3736 43.4271 43.4271 43.4271C42.4807 43.4271 41.713 42.6595 41.713 41.713C41.713 40.7666 42.4807 39.9989 43.4271 39.9989ZM36.5706 33.1424C37.5171 33.1424 38.2848 33.9101 38.2848 34.8565C38.2848 35.803 37.5171 36.5706 36.5706 36.5706C35.6242 36.5706 34.8565 35.803 34.8565 34.8565C34.8565 33.9101 35.6242 33.1424 36.5706 33.1424Z" fill="white"/>
</svg>
